<svg width="243" height="18" viewBox="0 0 243 18" fill="none" xmlns="http://www.w3.org/2000/svg">
<path d="M9.24851 10.1251L9.7481 6.86758H6.62233V4.75323C6.62233 3.8619 7.05886 2.99347 8.45893 2.99347H9.87985V0.219781C9.87985 0.219781 8.59068 0 7.35747 0C4.7827 0 3.10078 1.55982 3.10078 4.38439V6.86758H0.239075V10.1251H3.10078V18H6.62233V10.1251H9.24851Z" fill="white"/>
<path d="M43.6449 3.21362C43.0619 3.21362 42.5892 3.68624 42.5892 4.26874C42.5892 4.85175 43.0619 5.32436 43.6449 5.32436C44.2274 5.32436 44.7 4.85175 44.7 4.26874C44.7 3.68624 44.2274 3.21362 43.6449 3.21362Z" fill="white"/>
<path d="M38.9531 11.8392C37.3872 11.8392 36.1134 10.5654 36.1134 8.99999C36.1134 7.43411 37.3872 6.16025 38.9531 6.16025C40.5185 6.16025 41.7924 7.43411 41.7924 8.99999C41.7924 10.5654 40.5185 11.8392 38.9531 11.8392ZM38.9531 4.56689C36.5087 4.56689 34.52 6.55553 34.52 8.99999C34.52 11.4439 36.5087 13.4326 38.9531 13.4326C41.3971 13.4326 43.3857 11.4439 43.3857 8.99999C43.3857 6.55553 41.3971 4.56689 38.9531 4.56689Z" fill="white"/>
<path d="M35.2861 1.69357C33.2385 1.69357 31.5729 3.35917 31.5729 5.40682V12.5932C31.5729 14.6408 33.2385 16.3064 35.2861 16.3064H42.4725C44.5201 16.3064 46.1862 14.6408 46.1862 12.5932V5.40682C46.1862 3.35917 44.5201 1.69357 42.4725 1.69357H35.2861ZM42.4725 18H35.2861C32.3045 18 29.8798 15.5744 29.8798 12.5932V5.40682C29.8798 2.42513 32.3045 0 35.2861 0H42.4725C45.4537 0 47.8793 2.42513 47.8793 5.40682V12.5932C47.8793 15.5744 45.4537 18 42.4725 18Z" fill="white"/>
<path d="M89.6593 2.15762C88.9644 2.47202 88.1967 2.66229 87.4473 2.78795C87.8029 2.72842 88.3254 2.08436 88.535 1.82389C88.8545 1.42707 89.1195 0.974281 89.2686 0.485381C89.2879 0.447225 89.3027 0.399404 89.264 0.370406C89.2162 0.351583 89.1851 0.361255 89.147 0.380079C88.3101 0.82828 87.4453 1.15336 86.5244 1.38382C86.4481 1.40265 86.3911 1.38382 86.3433 1.33549C86.2675 1.24951 86.1953 1.16812 86.1144 1.10147C85.7272 0.772318 85.3121 0.51387 84.844 0.323092C84.2295 0.0727911 83.558 -0.0335303 82.8961 0.00920395C82.2515 0.0514295 81.6191 0.232542 81.0478 0.531173C80.475 0.830313 79.9637 1.24697 79.5562 1.7491C79.1355 2.26903 78.8251 2.88207 78.6659 3.53275C78.5133 4.16053 78.5255 4.7812 78.6191 5.4156C78.6333 5.52091 78.6237 5.53515 78.5285 5.52091C74.9271 4.9847 71.9418 3.69656 69.5182 0.934605C69.4129 0.814542 69.3559 0.814537 69.2699 0.943757C68.2092 2.53357 68.7235 5.08695 70.0483 6.34202C70.2254 6.5099 70.4065 6.67677 70.6024 6.82939C70.5306 6.84414 69.6495 6.74901 68.8635 6.34202C68.7587 6.27537 68.7053 6.31404 68.6961 6.43308C68.6864 6.60504 68.7012 6.76326 68.7246 6.94946C68.9281 8.56064 70.0443 10.0507 71.5725 10.6327C71.7536 10.7091 71.9546 10.7757 72.1499 10.8093C71.802 10.8856 71.4433 10.94 70.4446 10.8617C70.3205 10.8383 70.2732 10.9003 70.3205 11.0199C71.0714 13.0645 72.6902 13.6735 73.9036 14.0199C74.0658 14.0484 74.2287 14.0484 74.3915 14.0866C74.3813 14.1013 74.3716 14.1013 74.3619 14.1156C73.96 14.7286 72.5651 15.185 71.9154 15.4119C70.7341 15.825 69.4475 16.0107 68.1991 15.8875C67.9996 15.858 67.9574 15.8606 67.9035 15.8875C67.8485 15.9216 67.8959 15.9694 67.9605 16.0213C68.2138 16.1887 68.4717 16.3368 68.7348 16.4802C69.5274 16.9004 70.3541 17.2352 71.2189 17.4738C75.6831 18.7065 80.7115 17.8004 84.0636 14.4702C86.6959 11.8547 87.6187 8.24776 87.6187 4.63671C87.6187 4.49528 87.7856 4.41744 87.8843 4.34266C88.5696 3.82832 89.1221 3.21224 89.6328 2.52493C89.7478 2.37027 89.7488 2.23291 89.7488 2.17644C89.7488 2.16677 89.7488 2.15762 89.7488 2.15762C89.7488 2.09962 89.7478 2.11743 89.6593 2.15762Z" fill="white"/>
<path fill-rule="evenodd" clip-rule="evenodd" d="M115.577 11.7417C115.562 11.7936 115.548 11.8368 115.537 11.8806C114.875 14.4706 114.802 15.046 114.123 16.2497C113.798 16.821 113.434 17.3628 113.03 17.8817C112.984 17.9402 112.942 18.0155 112.851 17.9972C112.751 17.9758 112.743 17.8863 112.732 17.8064C112.623 17.0194 112.564 16.2298 112.59 15.4357C112.624 14.4004 112.752 14.0453 114.086 8.43284C114.106 8.34737 114.084 8.27666 114.056 8.19882C113.736 7.33752 113.673 6.46299 113.952 5.57676C114.556 3.66236 116.726 3.51584 117.106 5.09549C117.339 6.07227 116.721 7.35023 116.246 9.2397C115.853 10.799 117.688 11.907 119.257 10.769C120.703 9.71996 121.265 7.20423 121.158 5.42159C120.948 1.86752 117.051 1.09932 114.577 2.24399C111.743 3.55451 111.098 7.06839 112.378 8.67398C112.54 8.87849 112.665 9.00314 112.612 9.21071C112.53 9.53172 112.457 9.85579 112.368 10.1758C112.302 10.4134 112.103 10.5004 111.862 10.4022C111.39 10.2114 110.997 9.91125 110.678 9.51544C109.592 8.16982 109.281 5.50706 110.717 3.25384C112.31 0.756423 115.272 -0.253431 117.975 0.0533407C121.205 0.420144 123.246 2.62707 123.628 5.13008C123.802 6.27069 123.677 9.0825 122.077 11.0702C120.234 13.3539 117.249 13.505 115.872 12.1034C115.766 11.9961 115.681 11.8699 115.577 11.7417Z" fill="white"/>
<path d="M159.088 7.28289C158.941 7.29686 158.793 7.30434 158.645 7.30534C157.024 7.30534 155.513 6.48832 154.625 5.1321V12.5312C154.625 15.5519 152.176 18 149.156 18C146.136 18 143.688 15.5519 143.688 12.5312C143.688 9.51101 146.136 7.06293 149.156 7.06293C149.27 7.06293 149.382 7.07291 149.494 7.07989V9.77487C149.382 9.7614 149.271 9.74095 149.156 9.74095C147.615 9.74095 146.365 10.9909 146.365 12.5317C146.365 14.0735 147.615 15.323 149.156 15.323C150.698 15.323 152.059 14.1084 152.059 12.5666L152.087 0H154.665C154.908 2.31191 156.772 4.11805 159.091 4.28764V7.28289" fill="white"/>
<path d="M184.171 14.8997L184.476 15.0813C185.595 15.7478 186.867 16.1003 188.156 16.1003C192.132 16.1003 195.366 12.8662 195.366 8.89036C195.366 4.91501 192.132 1.6804 188.156 1.6804C184.181 1.6804 180.946 4.91501 180.946 8.89036C180.946 10.2029 181.311 11.4957 182.001 12.6286L182.188 12.9354L181.468 15.6241L184.171 14.8997ZM179.091 18L180.381 13.1857C179.65 11.867 179.266 10.3902 179.266 8.89036C179.266 3.98858 183.254 0 188.156 0C193.058 0 197.047 3.98858 197.047 8.89036C197.047 13.7927 193.058 17.7812 188.156 17.7812C186.685 17.7812 185.231 17.4093 183.93 16.7042L179.091 18Z" fill="white"/>
<path fill-rule="evenodd" clip-rule="evenodd" d="M191.463 10.1271C191.097 9.90788 190.621 9.66368 190.19 9.8397C189.86 9.97554 189.648 10.4934 189.434 10.7575C189.324 10.8933 189.193 10.9142 189.024 10.8465C187.782 10.3515 186.831 9.52275 186.146 8.38112C186.03 8.20357 186.051 8.06367 186.19 7.89934C186.398 7.65565 186.657 7.37889 186.713 7.05024C186.769 6.7221 186.615 6.3385 186.479 6.04546C186.306 5.67204 186.112 5.13939 185.738 4.92775C185.394 4.73341 184.94 4.84227 184.634 5.09156C184.105 5.52298 183.85 6.19759 183.857 6.8671C183.86 7.05737 183.883 7.24713 183.928 7.43028C184.034 7.87136 184.238 8.28395 184.468 8.67518C184.641 8.97076 184.829 9.2577 185.032 9.53344C185.696 10.4355 186.522 11.2194 187.479 11.8055C187.957 12.098 188.471 12.355 189.004 12.531C189.602 12.7284 190.135 12.9339 190.78 12.8113C191.456 12.6831 192.123 12.2649 192.391 11.6137C192.47 11.4204 192.51 11.2057 192.466 11.0022C192.374 10.5809 191.804 10.3306 191.463 10.1271Z" fill="white"/>
<path d="M234.276 9.50354L227.805 12.705C227.551 12.8416 226.689 12.6578 226.689 12.3695V5.79853C226.689 5.50671 227.558 5.3229 227.812 5.46738L234.006 8.83693C234.266 8.98498 234.538 9.36121 234.276 9.50354ZM242.761 5.64262C242.761 2.52627 240.235 0 237.118 0H222.689C219.573 0 217.047 2.52627 217.047 5.64262V12.3574C217.047 15.4744 219.573 18 222.689 18H237.118C240.235 18 242.761 15.4744 242.761 12.3574V5.64262Z" fill="white"/>
</svg>
