<svg width="45" height="33" viewBox="0 0 45 33" fill="none" xmlns="http://www.w3.org/2000/svg">
<path d="M25.5676 8.36489C26.3494 7.58114 26.8332 6.49963 26.8332 5.30473C26.8332 2.91172 24.8931 0.971619 22.5 0.971619C20.9872 0.971619 19.657 1.7483 18.882 2.92328C18.6761 3.1295 1.42681 24.3897 1.26556 24.6341C0.483742 25.4179 0 26.4997 0 27.694C0 30.0873 1.9401 32.0274 4.33311 32.0274C5.846 32.0274 7.17613 31.251 7.95121 30.0757C8.15711 29.8695 25.4064 8.60901 25.5676 8.36489Z" fill="white"/>
<path d="M35.5483 18.4538C36.3324 17.6694 36.8171 16.5866 36.8171 15.3901C36.8171 12.9971 34.877 11.057 32.484 11.057C30.9704 11.057 29.6397 11.8344 28.8646 13.0103C28.6571 13.2181 19.5974 24.3856 19.4352 24.6317C18.6511 25.416 18.1664 26.4988 18.1664 27.695C18.1664 30.0884 20.1065 32.0285 22.4995 32.0285C24.013 32.0285 25.3438 31.2511 26.1186 30.0752C26.3261 29.8677 35.3861 18.6999 35.5483 18.4538Z" fill="white"/>
<path d="M45 5.30473C45 7.69806 43.0599 9.63784 40.6668 9.63784C38.2735 9.63784 36.3337 7.69806 36.3337 5.30473C36.3337 2.91172 38.2735 0.971619 40.6668 0.971619C43.0599 0.971619 45 2.91172 45 5.30473Z" fill="white"/>
<path d="M8.66622 5.30473C8.66622 7.69806 6.72612 9.63784 4.33311 9.63784C1.9401 9.63784 0 7.69806 0 5.30473C0 2.91172 1.9401 0.971619 4.33311 0.971619C6.72612 0.971619 8.66622 2.91172 8.66622 5.30473Z" fill="white"/>
</svg>
