<svg width="25" height="21" viewBox="0 0 25 21" fill="none" xmlns="http://www.w3.org/2000/svg">
<path fill-rule="evenodd" clip-rule="evenodd" d="M0.46875 19.25C0.46875 18.9599 0.583984 18.6817 0.789102 18.4766C0.99422 18.2715 1.27242 18.1562 1.5625 18.1562H23.4375C23.7276 18.1562 24.0058 18.2715 24.2109 18.4766C24.416 18.6817 24.5312 18.9599 24.5312 19.25C24.5312 19.5401 24.416 19.8183 24.2109 20.0234C24.0058 20.2285 23.7276 20.3438 23.4375 20.3438H1.5625C1.27242 20.3438 0.99422 20.2285 0.789102 20.0234C0.583984 19.8183 0.46875 19.5401 0.46875 19.25ZM0.46875 10.5C0.46875 10.2099 0.583984 9.93172 0.789102 9.7266C0.99422 9.52148 1.27242 9.40625 1.5625 9.40625H23.4375C23.7276 9.40625 24.0058 9.52148 24.2109 9.7266C24.416 9.93172 24.5312 10.2099 24.5312 10.5C24.5312 10.7901 24.416 11.0683 24.2109 11.2734C24.0058 11.4785 23.7276 11.5938 23.4375 11.5938H1.5625C1.27242 11.5938 0.99422 11.4785 0.789102 11.2734C0.583984 11.0683 0.46875 10.7901 0.46875 10.5ZM0.46875 1.75C0.46875 1.45992 0.583984 1.18172 0.789102 0.976602C0.99422 0.771484 1.27242 0.65625 1.5625 0.65625H23.4375C23.7276 0.65625 24.0058 0.771484 24.2109 0.976602C24.416 1.18172 24.5312 1.45992 24.5312 1.75C24.5312 2.04008 24.416 2.31828 24.2109 2.5234C24.0058 2.72852 23.7276 2.84375 23.4375 2.84375H1.5625C1.27242 2.84375 0.99422 2.72852 0.789102 2.5234C0.583984 2.31828 0.46875 2.04008 0.46875 1.75Z" fill="white"/>
</svg>
