<svg width="18" height="15" viewBox="0 0 18 15" fill="none" xmlns="http://www.w3.org/2000/svg">
<path d="M15.9002 1.20312C16.0068 1.09432 16.1341 1.00789 16.2745 0.948879C16.415 0.889872 16.5658 0.859478 16.7182 0.859478C16.8705 0.859478 17.0213 0.889872 17.1618 0.948879C17.3022 1.00789 17.4295 1.09432 17.5361 1.20312C17.983 1.65469 17.9892 2.38437 17.5517 2.84375L8.31268 13.7656C8.20779 13.8808 8.08049 13.9734 7.93859 14.0377C7.79668 14.102 7.64315 14.1367 7.48738 14.1396C7.33161 14.1425 7.17689 14.1136 7.03267 14.0547C6.88845 13.9958 6.75777 13.908 6.64862 13.7969L1.02675 8.1C0.809928 7.87888 0.688477 7.58156 0.688477 7.27188C0.688477 6.96219 0.809928 6.66487 1.02675 6.44375C1.13338 6.33495 1.26065 6.24851 1.4011 6.1895C1.54156 6.1305 1.69237 6.1001 1.84471 6.1001C1.99706 6.1001 2.14787 6.1305 2.28833 6.1895C2.42878 6.24851 2.55605 6.33495 2.66268 6.44375L7.43143 11.2766L15.8689 1.2375C15.8786 1.22542 15.8891 1.21395 15.9002 1.20312Z" fill="#74C69D"/>
</svg>
